<svg width="306" height="103" viewBox="0 0 306 103" fill="none" xmlns="http://www.w3.org/2000/svg">
<g filter="url(#filter0_d_752_153)">
<path d="M79.356 56.3245L94.8314 32.5907L79.1257 9L63.501 32.4661L79.356 56.3245Z" fill="white"/>
<path d="M99.7493 37.7957L82.9854 63.2728V92C88.9272 91.257 94.5287 88.8154 99.118 84.9682C103.707 81.1209 107.089 76.0312 108.859 70.3094C110.629 64.5877 110.71 58.4769 109.095 52.7099C107.479 46.9429 104.234 41.7644 99.7493 37.7957Z" fill="white"/>
<path d="M74.9985 63.3786L58.191 38.0696C53.8026 42.0587 50.6449 47.2188 49.0896 52.9423C47.5343 58.6658 47.6461 64.7147 49.4119 70.3768C51.1778 76.0389 54.5241 81.0786 59.057 84.9027C63.5899 88.7269 69.1208 91.1763 74.9985 91.9626V63.3786Z" fill="white"/>
</g>
<path d="M123.188 35.5H129.031L143.938 72.5938L158.812 35.5H164.688L146.188 81H141.625L123.188 35.5ZM121.281 35.5H126.438L127.281 63.25V81H121.281V35.5ZM161.406 35.5H166.562V81H160.562V63.25L161.406 35.5ZM212.188 56.8125V59.6875C212.188 63.1042 211.76 66.1667 210.906 68.875C210.052 71.5833 208.823 73.8854 207.219 75.7812C205.615 77.6771 203.688 79.125 201.438 80.125C199.208 81.125 196.708 81.625 193.938 81.625C191.25 81.625 188.781 81.125 186.531 80.125C184.302 79.125 182.365 77.6771 180.719 75.7812C179.094 73.8854 177.833 71.5833 176.938 68.875C176.042 66.1667 175.594 63.1042 175.594 59.6875V56.8125C175.594 53.3958 176.031 50.3438 176.906 47.6562C177.802 44.9479 179.062 42.6458 180.688 40.75C182.312 38.8333 184.24 37.375 186.469 36.375C188.719 35.375 191.188 34.875 193.875 34.875C196.646 34.875 199.146 35.375 201.375 36.375C203.625 37.375 205.552 38.8333 207.156 40.75C208.781 42.6458 210.021 44.9479 210.875 47.6562C211.75 50.3438 212.188 53.3958 212.188 56.8125ZM206.219 59.6875V56.75C206.219 54.0417 205.938 51.6458 205.375 49.5625C204.833 47.4792 204.031 45.7292 202.969 44.3125C201.906 42.8958 200.604 41.8229 199.062 41.0938C197.542 40.3646 195.812 40 193.875 40C192 40 190.302 40.3646 188.781 41.0938C187.281 41.8229 185.99 42.8958 184.906 44.3125C183.844 45.7292 183.021 47.4792 182.438 49.5625C181.854 51.6458 181.562 54.0417 181.562 56.75V59.6875C181.562 62.4167 181.854 64.8333 182.438 66.9375C183.021 69.0208 183.854 70.7812 184.938 72.2188C186.042 73.6354 187.344 74.7083 188.844 75.4375C190.365 76.1667 192.062 76.5312 193.938 76.5312C195.896 76.5312 197.635 76.1667 199.156 75.4375C200.677 74.7083 201.958 73.6354 203 72.2188C204.062 70.7812 204.865 69.0208 205.406 66.9375C205.948 64.8333 206.219 62.4167 206.219 59.6875ZM254.844 58.3438V75C254.281 75.8333 253.385 76.7708 252.156 77.8125C250.927 78.8333 249.229 79.7292 247.062 80.5C244.917 81.25 242.146 81.625 238.75 81.625C235.979 81.625 233.427 81.1458 231.094 80.1875C228.781 79.2083 226.771 77.7917 225.062 75.9375C223.375 74.0625 222.062 71.7917 221.125 69.125C220.208 66.4375 219.75 63.3958 219.75 60V56.4688C219.75 53.0729 220.146 50.0417 220.938 47.375C221.75 44.7083 222.938 42.4479 224.5 40.5938C226.062 38.7188 227.979 37.3021 230.25 36.3438C232.521 35.3646 235.125 34.875 238.062 34.875C241.542 34.875 244.448 35.4792 246.781 36.6875C249.135 37.875 250.969 39.5208 252.281 41.625C253.615 43.7292 254.469 46.125 254.844 48.8125H248.812C248.542 47.1667 248 45.6667 247.188 44.3125C246.396 42.9583 245.26 41.875 243.781 41.0625C242.302 40.2292 240.396 39.8125 238.062 39.8125C235.958 39.8125 234.135 40.1979 232.594 40.9688C231.052 41.7396 229.781 42.8438 228.781 44.2812C227.781 45.7188 227.031 47.4583 226.531 49.5C226.052 51.5417 225.812 53.8438 225.812 56.4062V60C225.812 62.625 226.115 64.9688 226.719 67.0312C227.344 69.0938 228.229 70.8542 229.375 72.3125C230.521 73.75 231.885 74.8438 233.469 75.5938C235.073 76.3438 236.844 76.7188 238.781 76.7188C240.927 76.7188 242.667 76.5417 244 76.1875C245.333 75.8125 246.375 75.375 247.125 74.875C247.875 74.3542 248.448 73.8646 248.844 73.4062V63.2188H238.312V58.3438H254.844ZM299.875 56.8125V59.6875C299.875 63.1042 299.448 66.1667 298.594 68.875C297.74 71.5833 296.51 73.8854 294.906 75.7812C293.302 77.6771 291.375 79.125 289.125 80.125C286.896 81.125 284.396 81.625 281.625 81.625C278.938 81.625 276.469 81.125 274.219 80.125C271.99 79.125 270.052 77.6771 268.406 75.7812C266.781 73.8854 265.521 71.5833 264.625 68.875C263.729 66.1667 263.281 63.1042 263.281 59.6875V56.8125C263.281 53.3958 263.719 50.3438 264.594 47.6562C265.49 44.9479 266.75 42.6458 268.375 40.75C270 38.8333 271.927 37.375 274.156 36.375C276.406 35.375 278.875 34.875 281.562 34.875C284.333 34.875 286.833 35.375 289.062 36.375C291.312 37.375 293.24 38.8333 294.844 40.75C296.469 42.6458 297.708 44.9479 298.562 47.6562C299.438 50.3438 299.875 53.3958 299.875 56.8125ZM293.906 59.6875V56.75C293.906 54.0417 293.625 51.6458 293.062 49.5625C292.521 47.4792 291.719 45.7292 290.656 44.3125C289.594 42.8958 288.292 41.8229 286.75 41.0938C285.229 40.3646 283.5 40 281.562 40C279.688 40 277.99 40.3646 276.469 41.0938C274.969 41.8229 273.677 42.8958 272.594 44.3125C271.531 45.7292 270.708 47.4792 270.125 49.5625C269.542 51.6458 269.25 54.0417 269.25 56.75V59.6875C269.25 62.4167 269.542 64.8333 270.125 66.9375C270.708 69.0208 271.542 70.7812 272.625 72.2188C273.729 73.6354 275.031 74.7083 276.531 75.4375C278.052 76.1667 279.75 76.5312 281.625 76.5312C283.583 76.5312 285.323 76.1667 286.844 75.4375C288.365 74.7083 289.646 73.6354 290.688 72.2188C291.75 70.7812 292.552 69.0208 293.094 66.9375C293.635 64.8333 293.906 62.4167 293.906 59.6875Z" fill="white"/>
<path d="M17.5938 81H8.09375L8.15625 76.0938H17.5938C20.8438 76.0938 23.5521 75.4167 25.7188 74.0625C27.8854 72.6875 29.5104 70.7708 30.5938 68.3125C31.6979 65.8333 32.25 62.9375 32.25 59.625V56.8438C32.25 54.2396 31.9375 51.9271 31.3125 49.9062C30.6875 47.8646 29.7708 46.1458 28.5625 44.75C27.3542 43.3333 25.875 42.2604 24.125 41.5312C22.3958 40.8021 20.4062 40.4375 18.1562 40.4375H7.90625V35.5H18.1562C21.1354 35.5 23.8542 36 26.3125 37C28.7708 37.9792 30.8854 39.4062 32.6562 41.2812C34.4479 43.1354 35.8229 45.3854 36.7812 48.0312C37.7396 50.6562 38.2188 53.6146 38.2188 56.9062V59.625C38.2188 62.9167 37.7396 65.8854 36.7812 68.5312C35.8229 71.1562 34.4375 73.3958 32.625 75.25C30.8333 77.1042 28.6667 78.5312 26.125 79.5312C23.6042 80.5104 20.7604 81 17.5938 81ZM11.3125 35.5V81H5.28125V35.5H11.3125Z" fill="white"/>
<defs>
<filter id="filter0_d_752_153" x="38" y="0" width="82.249" height="103" filterUnits="userSpaceOnUse" color-interpolation-filters="sRGB">
<feFlood flood-opacity="0" result="BackgroundImageFix"/>
<feColorMatrix in="SourceAlpha" type="matrix" values="0 0 0 0 0 0 0 0 0 0 0 0 0 0 0 0 0 0 127 0" result="hardAlpha"/>
<feOffset dy="1"/>
<feGaussianBlur stdDeviation="5"/>
<feComposite in2="hardAlpha" operator="out"/>
<feColorMatrix type="matrix" values="0 0 0 0 0.65 0 0 0 0 0.65 0 0 0 0 0.65 0 0 0 0.25 0"/>
<feBlend mode="normal" in2="BackgroundImageFix" result="effect1_dropShadow_752_153"/>
<feBlend mode="normal" in="SourceGraphic" in2="effect1_dropShadow_752_153" result="shape"/>
</filter>
</defs>
</svg>
